<?xml version="1.0" encoding="UTF-8"?>
<svg xmlns="http://www.w3.org/2000/svg" viewBox="0 0 374.7475177 134.633401">
  <defs>
    <style>
      .cls-1 {
        fill: #1e3241;
      }
    </style>
  </defs>
  <g id="Word_Mark_Kopie" data-name="Word Mark Kopie">
    <g>
      <path class="cls-1" d="M137.3210111,47.1961975c0-.8925781-.1865234-1.6601562-.5585938-2.2998047-.3720703-.640625-.9628906-1.1777344-1.7744141-1.6103516-.8105469-.4326172-1.8759766-.7724609-3.1953125-1.0185547l-1.7451172-.3173828c-.7636719-.1533203-1.3623047-.3320312-1.7949219-.5380859-.4326172-.2050781-.7402344-.453125-.9228516-.7431641-.1816406-.2900391-.2724609-.6484375-.2724609-1.0751953,0-.4189453.1113281-.7802734.3349609-1.0839844.2226562-.3027344.5615234-.5361328,1.015625-.6992188.4550781-.1621094,1.0205078-.2431641,1.6982422-.2431641.8613281,0,1.5537109.1064453,2.0771484.3203125.5224609.2128906.9052734.5205078,1.1484375.921875.2421875.4013672.3896484.90625.4404297,1.5126953h3.0898438c-.046875-1.0927734-.3144531-2.0361328-.8046875-2.8310547-.4892578-.7958984-1.234375-1.4130859-2.2353516-1.8544922-1.0009766-.4404297-2.2646484-.6601562-3.7919922-.6601562-1.3789062,0-2.5341797.2060547-3.4667969.6191406-.9316406.4140625-1.625.9785156-2.0791016,1.6953125-.4550781.7167969-.6816406,1.5371094-.6816406,2.4619141,0,.9746094.2109375,1.8027344.6347656,2.4814453.4228516.6796875,1.0058594,1.2207031,1.75,1.6220703s1.6201172.6962891,2.6259766.8837891l1.7919922.3291016c.8544922.1650391,1.5292969.3515625,2.0273438.5615234.4970703.2089844.8564453.4609375,1.078125.7548828.2207031.2939453.3320312.6582031.3320312,1.0927734,0,.5205078-.1337891.9589844-.3994141,1.3154297-.2666016.3564453-.6582031.6240234-1.1757812.8017578-.5166016.1787109-1.1494141.2675781-1.8974609.2675781-.8027344,0-1.4980469-.1015625-2.0849609-.3056641-.5878906-.203125-1.0527344-.5478516-1.3955078-1.0332031-.3427734-.4863281-.5244141-1.1367188-.5439453-1.9511719h-3.2373047c.0283203,1.2851562.3320312,2.3671875.9140625,3.2460938.5820312.8798828,1.4082031,1.5400391,2.4794922,1.9824219,1.0712891.4433594,2.3505859.6640625,3.8388672.6640625,1.4375,0,2.6630859-.2128906,3.6777344-.6396484,1.0146484-.4277344,1.7851562-1.0361328,2.3115234-1.8271484.5273438-.7919922.7910156-1.7255859.7910156-2.8027344Z"/>
      <path class="cls-1" d="M156.4499174,39.9579163h-3.2255859l-1.2685547,4.6298828c-.2197266.8144531-.4404297,1.6669922-.6640625,2.5585938-.1389771.5534058-.2663574,1.0800781-.3884277,1.593811-.1325073-.5380859-.2643433-1.0845947-.3986816-1.5996704-.2119141-.8125-.4482422-1.6640625-.7109375-2.5527344l-1.328125-4.6298828h-2.7490234l-1.328125,4.6240234c-.234375.8105469-.4580078,1.6181641-.6699219,2.4228516-.1414795.5404663-.2906494,1.1307373-.4429932,1.7438965-.1326904-.5609741-.262146-1.0971069-.3851318-1.5788574-.1875-.7382812-.4130859-1.5986328-.6757812-2.5820312l-1.2744141-4.6298828h-3.2197266l3.8896484,12.1259766h3.0488281l1.4453125-5.0644531c.2197266-.7753906.4238281-1.5224609.6142578-2.2412109.1159668-.4400024.2386475-.9160156.3644409-1.4094238.1359863.541748.2641602,1.0466919.3757935,1.4719238.1738281.6650391.3730469,1.3896484.5957031,2.1728516l1.4570312,5.0703125h3.0439453l3.8945312-12.1259766Z"/>
      <rect class="cls-1" x="157.5006986" y="39.9579163" width="3.0019531" height="12.1259766"/>
      <path class="cls-1" d="M158.1149564,38.4686584c.2763672.1630859.5742188.2441406.8955078.2441406.3134766,0,.6074219-.0800781.8818359-.2412109.2734375-.1601562.4921875-.3769531.6552734-.6494141.1621094-.2714844.2431641-.5722656.2431641-.9013672,0-.3251953-.0800781-.6240234-.2402344-.8955078-.1611328-.2724609-.3789062-.4882812-.6523438-.6464844-.2744141-.1591797-.5703125-.2382812-.8876953-.2382812-.3291016,0-.6289062.0810547-.9013672.2441406-.2724609.1621094-.4892578.3789062-.6523438.6494141-.1621094.2695312-.2441406.5654297-.2441406.8867188,0,.3251953.0820312.6240234.2441406.8955078.1630859.2724609.3818359.4902344.6582031.6523438Z"/>
      <path class="cls-1" d="M169.0544095,50.0780334c-.3544922.1113281-.8017578.1669922-1.3427734.1669922-.5908203,0-1.0722656-.0673828-1.4423828-.2021484-.3701172-.1357422-.6533203-.3496094-.8515625-.6435547-.1972656-.2939453-.3242188-.6894531-.3789062-1.1865234l-2.9375.0058594c.0664062.9394531.3203125,1.7197266.7607422,2.3408203s1.0605469,1.0839844,1.859375,1.3896484,1.7744141.4580078,2.9257812.4580078c1.1279297,0,2.0966797-.1503906,2.9052734-.4521484s1.4287109-.7392578,1.859375-1.3134766c.4306641-.5732422.6464844-1.2714844.6464844-2.09375,0-.7011719-.15625-1.2958984-.4667969-1.7832031-.3115234-.4882812-.7802734-.8857422-1.4042969-1.1923828-.625-.3076172-1.4228516-.5380859-2.3945312-.6904297l-1.4277344-.2294922c-.4814453-.078125-.8710938-.1757812-1.1689453-.2939453-.2978516-.1171875-.5205078-.2714844-.6699219-.4638672-.1484375-.1923828-.2226562-.4326172-.2226562-.7226562s.0791016-.5351562.2373047-.7373047c.1591797-.2021484.3945312-.3554688.7080078-.4609375.3134766-.1064453.6972656-.1591797,1.1523438-.1591797.5517578,0,1.0068359.0585938,1.3652344.1767578.3583984.1171875.6376953.3173828.8378906.5986328.1992188.2822266.3105469.6679688.3339844,1.1582031h2.8203125c-.0273438-.8466797-.2324219-1.5712891-.6142578-2.1738281-.3818359-.6035156-.9648438-1.0703125-1.75-1.4013672-.7861328-.3310547-1.78125-.4970703-2.9873047-.4970703-1.0576172,0-1.9638672.1464844-2.7177734.4384766-.7539062.2910156-1.3271484.7119141-1.7216797,1.2597656-.3935547.5488281-.5898438,1.2080078-.5898438,1.9794922,0,.6972656.1552734,1.2958984.4667969,1.7949219.3115234.5.7617188.9042969,1.3515625,1.2138672.5888672.3095703,1.3085938.5322266,2.1591797.6689453l1.5566406.2470703c.5556641.0976562.9912109.2119141,1.3037109.3408203.3134766.1289062.5371094.2880859.6699219.4755859.1337891.1884766.2001953.4257812.2001953.7109375,0,.3134766-.0830078.5761719-.25.7871094-.1660156.2119141-.4267578.3730469-.78125.4853516Z"/>
      <path class="cls-1" d="M181.0680814,50.0780334c-.3544922.1113281-.8017578.1669922-1.3427734.1669922-.5908203,0-1.0722656-.0673828-1.4423828-.2021484-.3701172-.1357422-.6533203-.3496094-.8515625-.6435547-.1972656-.2939453-.3242188-.6894531-.3789062-1.1865234l-2.9375.0058594c.0664062.9394531.3203125,1.7197266.7607422,2.3408203s1.0605469,1.0839844,1.859375,1.3896484,1.7744141.4580078,2.9257812.4580078c1.1279297,0,2.0966797-.1503906,2.9052734-.4521484s1.4287109-.7392578,1.859375-1.3134766c.4306641-.5732422.6464844-1.2714844.6464844-2.09375,0-.7011719-.15625-1.2958984-.4667969-1.7832031-.3115234-.4882812-.7802734-.8857422-1.4042969-1.1923828-.625-.3076172-1.4228516-.5380859-2.3945312-.6904297l-1.4277344-.2294922c-.4814453-.078125-.8710938-.1757812-1.1689453-.2939453-.2978516-.1171875-.5205078-.2714844-.6699219-.4638672-.1484375-.1923828-.2226562-.4326172-.2226562-.7226562s.0791016-.5351562.2373047-.7373047c.1591797-.2021484.3945312-.3554688.7080078-.4609375.3134766-.1064453.6972656-.1591797,1.1523438-.1591797.5517578,0,1.0068359.0585938,1.3652344.1767578.3583984.1171875.6376953.3173828.8378906.5986328.1992188.2822266.3105469.6679688.3339844,1.1582031h2.8203125c-.0273438-.8466797-.2324219-1.5712891-.6142578-2.1738281-.3818359-.6035156-.9648438-1.0703125-1.75-1.4013672-.7861328-.3310547-1.78125-.4970703-2.9873047-.4970703-1.0576172,0-1.9638672.1464844-2.7177734.4384766-.7539062.2910156-1.3271484.7119141-1.7216797,1.2597656-.3935547.5488281-.5898438,1.2080078-.5898438,1.9794922,0,.6972656.1552734,1.2958984.4667969,1.7949219.3115234.5.7617188.9042969,1.3515625,1.2138672.5888672.3095703,1.3085938.5322266,2.1591797.6689453l1.5566406.2470703c.5556641.0976562.9912109.2119141,1.3037109.3408203.3134766.1289062.5371094.2880859.6699219.4755859.1337891.1884766.2001953.4257812.2001953.7109375,0,.3134766-.0830078.5761719-.25.7871094-.1660156.2119141-.4267578.3730469-.78125.4853516Z"/>
      <path class="cls-1" d="M195.0071683,48.2420959h7.1309814l1.4104004,3.8417969h3.3720703l-6.4794922-16.7314453h-3.8017578l-6.3037109,16.7314453h3.2841797l1.3873291-3.8417969ZM197.3092924,41.8670959c.2041016-.5947266.4013672-1.1728516.59375-1.7324219.1914062-.5605469.3681641-1.0869141.5283203-1.5810547.0339966-.104126.0678711-.2190552.1018066-.3248901.0394897.1158447.0794067.2401733.1188965.354187.1738281.5058594.3574219,1.0351562.5488281,1.5898438.1923828.5537109.3935547,1.1269531.6054688,1.7177734l1.3591309,3.7021484h-5.2015991l1.3453979-3.7255859Z"/>
      <path class="cls-1" d="M210.1764799,51.5877991c.9082031.5185547,1.9638672.7783203,3.1660156.7783203,1.0537109,0,1.9931641-.1972656,2.8173828-.5908203s1.4892578-.9511719,1.9941406-1.6738281c.5058594-.7226562.8173828-1.5673828.9345703-2.5351562l-3.0019531.0058594c-.0947266.5205078-.2714844.9541016-.5322266,1.2978516-.2607422.3447266-.5800781.6015625-.9599609.7705078-.3798828.1679688-.7998047.2519531-1.2578125.2519531-.5957031,0-1.1132812-.1396484-1.5537109-.4199219s-.7822266-.7080078-1.0253906-1.2832031c-.2431641-.5761719-.3642578-1.2988281-.3642578-2.1679688,0-.8623047.1210938-1.5820312.3642578-2.1591797.2431641-.578125.5849609-1.0068359,1.0253906-1.2871094.4404297-.2792969.9609375-.4199219,1.5595703-.4199219.4501953,0,.8613281.0800781,1.234375.2412109.3720703.1601562.6855469.4042969.9423828.7314453s.4335938.7373047.5322266,1.2304688h3.0371094c-.109375-.9316406-.4072266-1.7509766-.8935547-2.4550781-.4853516-.7050781-1.1386719-1.2529297-1.9589844-1.6425781s-1.7753906-.5849609-2.8642578-.5849609c-1.2177734,0-2.2832031.2587891-3.1953125.7763672-.9130859.5166016-1.6171875,1.2539062-2.1123047,2.2119141-.4960938.9570312-.7431641,2.0761719-.7431641,3.3574219,0,1.2802734.2480469,2.3984375.7460938,3.3544922.4970703.9560547,1.2001953,1.6933594,2.109375,2.2119141Z"/>
      <path class="cls-1" d="M222.8395658,51.5848694c.796875.5205078,1.7275391.78125,2.7929688.78125,1.0458984,0,1.9316406-.2685547,2.6582031-.8046875.4701538-.3475342.8564453-.791626,1.1749878-1.3134155l.0037231,1.8358765h2.890625v-12.1259766h-2.890625l-.0037231,1.8505859c-.3228149-.53125-.715332-.9815063-1.1925659-1.3330078-.7226562-.5332031-1.6025391-.7998047-2.640625-.7998047-1.0654297,0-1.9970703.2607422-2.7958984.7822266-.7998047.5205078-1.4150391,1.2597656-1.8476562,2.2177734-.4335938.9570312-.6494141,2.0722656-.6494141,3.3457031,0,1.2763672.2167969,2.3925781.6523438,3.3486328.4345703.9550781,1.0498047,1.6943359,1.8476562,2.2148438ZM223.7790189,43.9735413c.2451172-.5927734.5947266-1.046875,1.0488281-1.3603516.4541016-.3125.9912109-.4697266,1.609375-.4697266.6269531,0,1.1679688.1523438,1.6220703.4550781.4541016.3037109.8027344.7470703,1.0458984,1.3310547.2421875.5839844.3642578,1.2851562.3642578,2.1035156,0,.8105469-.1230469,1.5078125-.3671875,2.0908203-.2451172.5839844-.59375,1.0263672-1.0458984,1.328125s-.9921875.4521484-1.6191406.4521484c-.6220703,0-1.1611328-.1455078-1.6152344-.4375s-.8027344-.7226562-1.0458984-1.2919922c-.2431641-.5703125-.3642578-1.2646484-.3642578-2.0830078s.1220703-1.5244141.3671875-2.1181641Z"/>
      <path class="cls-1" d="M236.7223783,51.5848694c.796875.5205078,1.7275391.78125,2.7929688.78125,1.0458984,0,1.9316406-.2685547,2.6582031-.8046875.4701538-.3475342.8564453-.791626,1.1749878-1.3134155l.0037231,1.8358765h2.890625v-16.7314453h-3.0029297v6.2849731c-.3025513-.4556274-.6588745-.848877-1.0839844-1.1619263-.7226562-.5332031-1.6025391-.7998047-2.640625-.7998047-1.0654297,0-1.9970703.2607422-2.7958984.7822266-.7998047.5205078-1.4150391,1.2597656-1.8476562,2.2177734-.4335938.9570312-.6494141,2.0722656-.6494141,3.3457031,0,1.2763672.2167969,2.3925781.6523438,3.3486328.4345703.9550781,1.0498047,1.6943359,1.8476562,2.2148438ZM237.6618314,43.9735413c.2451172-.5927734.5947266-1.046875,1.0488281-1.3603516.4541016-.3125.9912109-.4697266,1.609375-.4697266.6269531,0,1.1679688.1523438,1.6220703.4550781.4541016.3037109.8027344.7470703,1.0458984,1.3310547.2421875.5839844.3642578,1.2851562.3642578,2.1035156,0,.8105469-.1230469,1.5078125-.3671875,2.0908203-.2451172.5839844-.59375,1.0263672-1.0458984,1.328125s-.9921875.4521484-1.6191406.4521484c-.6220703,0-1.1611328-.1455078-1.6152344-.4375s-.8027344-.7226562-1.0458984-1.2919922c-.2431641-.5703125-.3642578-1.2646484-.3642578-2.0830078s.1220703-1.5244141.3671875-2.1181641Z"/>
      <path class="cls-1" d="M250.9977689,51.5965881c.9179688.5126953,1.9824219.7695312,3.1923828.7695312.9912109,0,1.8759766-.1650391,2.65625-.4960938.7792969-.3310547,1.4248047-.8007812,1.9384766-1.4101562.5126953-.609375.8710938-1.3232422,1.0751953-2.1416016h-2.8847656c-.1210938.3759766-.3046875.6962891-.5498047.9609375-.2441406.2636719-.5517578.4677734-.921875.6103516-.3701172.1435547-.7939453.2148438-1.2724609.2148438-.6650391,0-1.2373047-.1357422-1.7148438-.4052734-.4785156-.2705078-.8457031-.6796875-1.1015625-1.2285156-.2023926-.4317627-.3012695-.9709473-.3440552-1.5683594h9.0354614c.0126953-.1679688.0205078-.3261719.0244141-.4726562.0029297-.1474609.0058594-.2871094.0058594-.4199219,0-1.2304688-.2402344-2.3242188-.7197266-3.28125-.4804688-.9580078-1.1728516-1.7060547-2.0771484-2.2441406-.9052734-.5390625-1.9677734-.8085938-3.1904297-.8085938-1.2099609,0-2.2714844.2636719-3.1835938.7910156-.9130859.5263672-1.6181641,1.2714844-2.1152344,2.2353516-.4980469.9628906-.7460938,2.0751953-.7460938,3.3369141,0,1.2841797.2519531,2.4033203.7578125,3.3574219.5048828.9541016,1.2167969,1.6875,2.1357422,2.2001953ZM252.4899564,42.3934631c.4599609-.2763672,1.0029297-.4140625,1.6298828-.4140625.6464844,0,1.1953125.1435547,1.6484375.4316406.4521484.2880859.7949219.6875,1.0273438,1.1982422.1717529.3766479.2597046.8104248.3070679,1.2724609h-5.9963989c.0615845-.454895.1539917-.8757935.3114014-1.2255859.2539062-.5654297.6113281-.9863281,1.0722656-1.2626953Z"/>
      <path class="cls-1" d="M276.8415189,43.2684631c.1542969.3349609.2314453.7568359.2314453,1.2666016v7.5488281h2.9960938v-8.1191406c0-.8691406-.1611328-1.6269531-.484375-2.2734375s-.7949219-1.1435547-1.4160156-1.4921875c-.6201172-.3486328-1.3613281-.5234375-2.2236328-.5234375-.6699219,0-1.2763672.1337891-1.8212891.4003906-.5439453.265625-1.0126953.6298828-1.4042969,1.0927734-.2011719.2372437-.3815918.4956055-.5443115.7721558-.0380859-.0903931-.0717163-.1837769-.1158447-.2702026-.3232422-.6328125-.7900391-1.1230469-1.4013672-1.4716797s-1.3378906-.5234375-2.1796875-.5234375c-.6347656,0-1.2070312.1201172-1.71875.3583984-.5107422.2392578-.9521484.5810547-1.3242188,1.0253906-.1960449.2340698-.3686523.496521-.5234375.7803345v-1.881897h-2.9082031v12.1259766h3.0019531v-6.6445312c0-.7207031.1191406-1.3173828.3554688-1.7919922.2373047-.4736328.5439453-.8212891.9199219-1.0429688.3759766-.2207031.7773438-.3310547,1.2041016-.3310547.4384766,0,.8115234.0830078,1.1191406.2490234.3076172.1669922.5400391.4160156.6962891.7490234.1572266.3330078.2353516.7539062.2353516,1.2636719v7.5488281h3.0078125v-6.6503906c0-.7167969.1152344-1.3115234.3466797-1.7861328.2314453-.4736328.5341797-.8212891.9101562-1.0429688.3759766-.2207031.7792969-.3310547,1.2109375-.3310547.4501953,0,.8291016.0820312,1.1367188.2460938.3076172.1650391.5380859.4140625.6933594.7490234Z"/>
      <path class="cls-1" d="M289.7819486,39.9579163l-2.0976562,6.65625c-.1640625.5175781-.3408203,1.1210938-.5283203,1.8125-.0908813.3334961-.1851196.6848755-.2821655,1.0507202-.0740356-.2805176-.1442261-.5689697-.2207642-.8446655-.1855469-.671875-.3808594-1.3408203-.5839844-2.0068359l-2.1328125-6.6679688h-3.2373047l4.5693359,12.3527222-.2978516.8484497c-.1064453.3095703-.2412109.5664062-.4052734.7695312-.1650391.2041016-.3759766.3583984-.6347656.4648438-.2587891.1054688-.5722656.1582031-.9404297.1582031h-1.4335938v2.3261719c.2548828.015625.5009766.0273438.7373047.0351562.2373047.0078125.4794922.0117188.7255859.0117188.9638672,0,1.7509766-.1035156,2.3623047-.3105469.6113281-.2080078,1.1230469-.5576172,1.5361328-1.0488281.4130859-.4921875.7841797-1.1884766,1.1132812-2.0888672l4.9111328-13.5185547h-3.1601562Z"/>
      <path class="cls-1" d="M132.9147611,63.969635c-.9404297-.5253906-2.0214844-.7880859-3.2431641-.7880859-1.2226562,0-2.3056641.2626953-3.2519531.7880859-.9462891.5244141-1.6826172,1.265625-2.2089844,2.2236328-.5273438.9570312-.7900391,2.0703125-.7900391,3.3398438,0,1.2685547.2626953,2.3808594.7900391,3.3369141.5263672.9550781,1.2626953,1.6943359,2.2089844,2.2148438s2.0292969.78125,3.2519531.78125c1.2216797,0,2.3037109-.2607422,3.2460938-.78125.9414062-.5205078,1.6757812-1.2607422,2.203125-2.2177734.5263672-.9580078.7900391-2.0693359.7900391-3.3339844,0-1.2695312-.2646484-2.3828125-.7929688-3.3398438-.5292969-.9580078-1.2636719-1.6992188-2.203125-2.2236328ZM132.444058,71.657135c-.265625.5810547-.6347656,1.0175781-1.1074219,1.3095703-.4716797.2919922-1.0273438.4375-1.6650391.4375-.6425781,0-1.2021484-.1464844-1.6806641-.4404297-.4775391-.2939453-.8466797-.7304688-1.1074219-1.3095703-.2607422-.5800781-.390625-1.2851562-.390625-2.1152344,0-.8378906.1298828-1.5478516.390625-2.1298828s.6298828-1.0214844,1.1074219-1.3193359c.4785156-.296875,1.0380859-.4462891,1.6806641-.4462891.6376953,0,1.1943359.1484375,1.6679688.4433594.4746094.2958984.84375.7353516,1.1074219,1.3193359.2646484.5839844.3964844,1.2949219.3964844,2.1328125,0,.8300781-.1328125,1.5361328-.3994141,2.1181641Z"/>
      <path class="cls-1" d="M138.3249174,67.04776v8.5361328h3.0019531v-9.7753906h2.5615234v-2.3505859h-2.5615234v-.8105469c0-.3408203.0517578-.6181641.15625-.8310547.1035156-.2138672.2646484-.375.484375-.4853516.2197266-.109375.5087891-.1640625.8691406-.1640625.1259766,0,.2548828.0009766.3876953.0029297.1337891.0019531.2685547.0048828.40625.0087891.0546875.0039062.1083984.0068359.1611328.0087891s.1064453.0029297.1611328.0029297v-2.3378906c-.0117188,0-.0253906-.0009766-.0410156-.0029297s-.03125-.0029297-.046875-.0029297c-.2470703-.0195312-.5078125-.0351562-.7841797-.046875s-.5214844-.0185547-.7373047-.0185547c-.9248047,0-1.6816406.1386719-2.2705078.4150391-.5898438.2753906-1.0283203.6894531-1.3164062,1.2392578-.2880859.5507812-.4316406,1.2460938-.4316406,2.0888672v.9335938h-1.9267578v2.3505859h1.9267578v1.2392578Z"/>
      <polygon class="cls-1" points="161.5251127 65.5907288 153.881558 65.5907288 153.881558 58.8524475 150.6452299 58.8524475 150.6452299 75.5838928 153.881558 75.5838928 153.881558 68.4169006 161.5251127 68.4169006 161.5251127 75.5838928 164.756558 75.5838928 164.756558 58.8524475 161.5251127 58.8524475 161.5251127 65.5907288"/>
      <path class="cls-1" d="M172.7165189,75.8661194c1.1005859,0,2.0664062-.2138672,2.8964844-.640625s1.4707031-1.0253906,1.9208984-1.7949219.6757812-1.6591797.6757812-2.6699219v-7.3027344h-3.0019531v7.2792969c0,.5488281-.1054688,1.0175781-.3173828,1.4072266s-.5039062.6855469-.8779297.8867188c-.3740234.2021484-.8066406.3027344-1.2958984.3027344-.4814453,0-.9072266-.1005859-1.2773438-.3027344-.3701172-.2011719-.6572266-.4960938-.8613281-.8837891-.203125-.3876953-.3056641-.8574219-.3056641-1.4101562v-7.2792969h-3.0019531v7.3027344c0,1.0146484.2197266,1.90625.6582031,2.6757812s1.0683594,1.3671875,1.8886719,1.7919922,1.7871094.6376953,2.8994141.6376953Z"/>
      <path class="cls-1" d="M186.100308,65.7733459c.4384766,0,.8115234.0830078,1.1191406.2490234.3076172.1669922.5400391.4160156.6962891.7490234.1572266.3330078.2353516.7539062.2353516,1.2636719v7.5488281h3.0078125v-6.6503906c0-.7167969.1152344-1.3115234.3466797-1.7861328.2314453-.4736328.5341797-.8212891.9101562-1.0429688.3759766-.2207031.7792969-.3310547,1.2109375-.3310547.4501953,0,.8291016.0820312,1.1367188.2460938.3076172.1650391.5380859.4140625.6933594.7490234.1542969.3349609.2314453.7568359.2314453,1.2666016v7.5488281h2.9960938v-8.1191406c0-.8691406-.1611328-1.6269531-.484375-2.2734375s-.7949219-1.1435547-1.4160156-1.4921875c-.6201172-.3486328-1.3613281-.5234375-2.2236328-.5234375-.6699219,0-1.2763672.1337891-1.8212891.4003906-.5439453.265625-1.0126953.6298828-1.4042969,1.0927734-.2011719.2372437-.3815918.4956055-.5443115.7721558-.0380859-.0903931-.0717163-.1837769-.1158447-.2702026-.3232422-.6328125-.7900391-1.1230469-1.4013672-1.4716797s-1.3378906-.5234375-2.1796875-.5234375c-.6347656,0-1.2070312.1201172-1.71875.3583984-.5107422.2392578-.9521484.5810547-1.3242188,1.0253906-.1960449.2340698-.3686523.496521-.5234375.7803345v-1.881897h-2.9082031v12.1259766h3.0019531v-6.6445312c0-.7207031.1191406-1.3173828.3554688-1.7919922.2373047-.4736328.5439453-.8212891.9199219-1.0429688.3759766-.2207031.7773438-.3310547,1.2041016-.3310547Z"/>
      <path class="cls-1" d="M209.6727567,65.3085022c-.3228149-.53125-.715332-.9815063-1.1925659-1.3330078-.7226562-.5332031-1.6025391-.7998047-2.640625-.7998047-1.0654297,0-1.9970703.2607422-2.7958984.7822266-.7998047.5205078-1.4150391,1.2597656-1.8476562,2.2177734-.4335938.9570312-.6494141,2.0722656-.6494141,3.3457031,0,1.2763672.2167969,2.3925781.6523438,3.3486328.4345703.9550781,1.0498047,1.6943359,1.8476562,2.2148438.796875.5205078,1.7275391.78125,2.7929688.78125,1.0458984,0,1.9316406-.2685547,2.6582031-.8046875.4701538-.3475342.8564453-.791626,1.1749878-1.3134155l.0037231,1.8358765h2.890625v-12.1259766h-2.890625l-.0037231,1.8505859ZM208.2633939,72.9520569c-.4521484.3017578-.9921875.4521484-1.6191406.4521484-.6220703,0-1.1611328-.1455078-1.6152344-.4375s-.8027344-.7226562-1.0458984-1.2919922c-.2431641-.5703125-.3642578-1.2646484-.3642578-2.0830078s.1220703-1.5244141.3671875-2.1181641c.2451172-.5927734.5947266-1.046875,1.0488281-1.3603516.4541016-.3125.9912109-.4697266,1.609375-.4697266.6269531,0,1.1679688.1523438,1.6220703.4550781.4541016.3037109.8027344.7470703,1.0458984,1.3310547.2421875.5839844.3642578,1.2851562.3642578,2.1035156,0,.8105469-.1230469,1.5078125-.3671875,2.0908203-.2451172.5839844-.59375,1.0263672-1.0458984,1.328125Z"/>
      <path class="cls-1" d="M217.8835111,65.26474v-1.8068237h-2.9082031v12.1259766h3.0019531v-6.796875c0-.6699219.1298828-1.2314453.3886719-1.6835938.2578125-.4521484.5917969-.7880859,1.0009766-1.0078125.4091797-.21875.84375-.328125,1.3017578-.328125.4853516,0,.8945312.0839844,1.2275391.2519531.3330078.1689453.5859375.421875.7578125.7607422.1728516.3388672.2587891.7626953.2587891,1.2724609v7.53125h3.0019531v-7.9599609c0-.9716797-.1689453-1.7900391-.5078125-2.4560547s-.8232422-1.1640625-1.4511719-1.4951172c-.6289062-.3310547-1.3818359-.4970703-2.2587891-.4970703-.6660156,0-1.2773438.1230469-1.8330078.3671875-.5566406.2451172-1.0361328.5839844-1.4394531,1.0166016-.2026367.2173462-.3827515.4526978-.5410156.7052612Z"/>
      <path class="cls-1" d="M231.6130033,60.4208069c0-.3251953-.0800781-.6240234-.2402344-.8955078-.1611328-.2724609-.3789062-.4882812-.6523438-.6464844-.2744141-.1591797-.5703125-.2382812-.8876953-.2382812-.3291016,0-.6289062.0810547-.9013672.2441406-.2724609.1621094-.4892578.3789062-.6523438.6494141-.1621094.2695312-.2441406.5654297-.2441406.8867188,0,.3251953.0820312.6240234.2441406.8955078.1630859.2724609.3818359.4902344.6582031.6523438.2763672.1630859.5742188.2441406.8955078.2441406.3134766,0,.6074219-.0800781.8818359-.2412109.2734375-.1601562.4921875-.3769531.6552734-.6494141.1621094-.2714844.2431641-.5722656.2431641-.9013672Z"/>
      <rect class="cls-1" x="228.3229642" y="63.4579163" width="3.0019531" height="12.1259766"/>
      <path class="cls-1" d="M237.7585111,62.6239319v-2.8789062h-3.0019531v3.7128906h-1.9267578v2.3505859h1.9267578v6.8261719c0,.7246094.1386719,1.3085938.4169922,1.7509766s.6972656.7646484,1.2578125.9667969c.5595703.2011719,1.2744141.3017578,2.1435547.3017578.2158203,0,.4472656-.0058594.6933594-.0175781.2470703-.0117188.4941406-.0253906.7402344-.0410156.0234375,0,.0488281-.0019531.0771484-.0058594.0273438-.0039062.0546875-.0058594.0820312-.0058594v-2.3320312h-1.0224609c-.3447266,0-.6152344-.0332031-.8105469-.0996094-.1962891-.0673828-.3408203-.1777344-.4345703-.3320312-.0947266-.1552734-.1416016-.3632812-.1416016-.6259766v-6.3857422h2.4150391v-2.3505859h-2.4150391v-.8339844Z"/>
      <path class="cls-1" d="M242.5202299,61.9686584c.2763672.1630859.5742188.2441406.8955078.2441406.3134766,0,.6074219-.0800781.8818359-.2412109.2734375-.1601562.4921875-.3769531.6552734-.6494141.1621094-.2714844.2431641-.5722656.2431641-.9013672,0-.3251953-.0800781-.6240234-.2402344-.8955078-.1611328-.2724609-.3789062-.4882812-.6523438-.6464844-.2744141-.1591797-.5703125-.2382812-.8876953-.2382812-.3291016,0-.6289062.0810547-.9013672.2441406-.2724609.1621094-.4892578.3789062-.6523438.6494141-.1621094.2695312-.2441406.5654297-.2441406.8867188,0,.3251953.0820312.6240234.2441406.8955078.1630859.2724609.3818359.4902344.6582031.6523438Z"/>
      <rect class="cls-1" x="241.905972" y="63.4579163" width="3.0019531" height="12.1259766"/>
      <path class="cls-1" d="M249.6637845,75.0965881c.9179688.5126953,1.9824219.7695312,3.1923828.7695312.9912109,0,1.8759766-.1650391,2.65625-.4960938.7792969-.3310547,1.4248047-.8007812,1.9384766-1.4101562.5126953-.609375.8710938-1.3232422,1.0751953-2.1416016h-2.8847656c-.1210938.3759766-.3046875.6962891-.5498047.9609375-.2441406.2636719-.5517578.4677734-.921875.6103516-.3701172.1435547-.7939453.2148438-1.2724609.2148438-.6650391,0-1.2373047-.1357422-1.7148438-.4052734-.4785156-.2705078-.8457031-.6796875-1.1015625-1.2285156-.2023926-.4317627-.3012695-.9709473-.3440552-1.5683594h9.0354614c.0126953-.1679688.0205078-.3261719.0244141-.4726562.0029297-.1474609.0058594-.2871094.0058594-.4199219,0-1.2304688-.2402344-2.3242188-.7197266-3.28125-.4804688-.9580078-1.1728516-1.7060547-2.0771484-2.2441406-.9052734-.5390625-1.9677734-.8085938-3.1904297-.8085938-1.2099609,0-2.2714844.2636719-3.1835938.7910156-.9130859.5263672-1.6181641,1.2714844-2.1152344,2.2353516-.4980469.9628906-.7460938,2.0751953-.7460938,3.3369141,0,1.2841797.2519531,2.4033203.7578125,3.3574219.5048828.9541016,1.2167969,1.6875,2.1357422,2.2001953ZM251.155972,65.8934631c.4599609-.2763672,1.0029297-.4140625,1.6298828-.4140625.6464844,0,1.1953125.1435547,1.6484375.4316406.4521484.2880859.7949219.6875,1.0273438,1.1982422.1717529.3766479.2597046.8104248.3070679,1.2724609h-5.9963989c.0615845-.454895.1539917-.8757935.3114014-1.2255859.2539062-.5654297.6113281-.9863281,1.0722656-1.2626953Z"/>
      <path class="cls-1" d="M270.2555814,70.2645569c-.3115234-.4882812-.7802734-.8857422-1.4042969-1.1923828-.625-.3076172-1.4228516-.5380859-2.3945312-.6904297l-1.4277344-.2294922c-.4814453-.078125-.8710938-.1757812-1.1689453-.2939453-.2978516-.1171875-.5205078-.2714844-.6699219-.4638672-.1484375-.1923828-.2226562-.4326172-.2226562-.7226562s.0791016-.5351562.2373047-.7373047c.1591797-.2021484.3945312-.3554688.7080078-.4609375.3134766-.1064453.6972656-.1591797,1.1523438-.1591797.5517578,0,1.0068359.0585938,1.3652344.1767578.3583984.1171875.6376953.3173828.8378906.5986328.1992188.2822266.3105469.6679688.3339844,1.1582031h2.8203125c-.0273438-.8466797-.2324219-1.5712891-.6142578-2.1738281-.3818359-.6035156-.9648438-1.0703125-1.75-1.4013672-.7861328-.3310547-1.78125-.4970703-2.9873047-.4970703-1.0576172,0-1.9638672.1464844-2.7177734.4384766-.7539062.2910156-1.3271484.7119141-1.7216797,1.2597656-.3935547.5488281-.5898438,1.2080078-.5898438,1.9794922,0,.6972656.1552734,1.2958984.4667969,1.7949219.3115234.5.7617188.9042969,1.3515625,1.2138672.5888672.3095703,1.3085938.5322266,2.1591797.6689453l1.5566406.2470703c.5556641.0976562.9912109.2119141,1.3037109.3408203.3134766.1289062.5371094.2880859.6699219.4755859.1337891.1884766.2001953.4257812.2001953.7109375,0,.3134766-.0830078.5761719-.25.7871094-.1660156.2119141-.4267578.3730469-.78125.4853516-.3544922.1113281-.8017578.1669922-1.3427734.1669922-.5908203,0-1.0722656-.0673828-1.4423828-.2021484-.3701172-.1357422-.6533203-.3496094-.8515625-.6435547-.1972656-.2939453-.3242188-.6894531-.3789062-1.1865234l-2.9375.0058594c.0664062.9394531.3203125,1.7197266.7607422,2.3408203s1.0605469,1.0839844,1.859375,1.3896484,1.7744141.4580078,2.9257812.4580078c1.1279297,0,2.0966797-.1503906,2.9052734-.4521484s1.4287109-.7392578,1.859375-1.3134766c.4306641-.5732422.6464844-1.2714844.6464844-2.09375,0-.7011719-.15625-1.2958984-.4667969-1.7832031Z"/>
      <path class="cls-1" d="M132.5467802,88.8085022c-.3228149-.53125-.715332-.9815063-1.1925659-1.3330078-.7226562-.5332031-1.6025391-.7998047-2.640625-.7998047-1.0654297,0-1.9970703.2607422-2.7958984.7822266-.7998047.5205078-1.4150391,1.2597656-1.8476562,2.2177734-.4335938.9570312-.6494141,2.0722656-.6494141,3.3457031,0,1.2763672.2167969,2.3925781.6523438,3.3486328.4345703.9550781,1.0498047,1.6933594,1.8476562,2.2148438.796875.5205078,1.7275391.78125,2.7929688.78125,1.0458984,0,1.9316406-.2685547,2.6582031-.8046875.4701538-.3475342.8564453-.791626,1.1749878-1.3134155l.0037231,1.8358765h2.890625v-12.1259766h-2.890625l-.0037231,1.8505859ZM131.1374174,96.4520569c-.4521484.3017578-.9921875.4521484-1.6191406.4521484-.6220703,0-1.1611328-.1455078-1.6152344-.4375s-.8027344-.7226562-1.0458984-1.2919922c-.2431641-.5703125-.3642578-1.2646484-.3642578-2.0830078s.1220703-1.5244141.3671875-2.1181641c.2451172-.5927734.5947266-1.046875,1.0488281-1.3603516.4541016-.3125.9912109-.4697266,1.609375-.4697266.6269531,0,1.1679688.1523438,1.6220703.4550781.4541016.3037109.8027344.7470703,1.0458984,1.3310547.2421875.5839844.3642578,1.2851562.3642578,2.1035156,0,.8105469-.1230469,1.5078125-.3671875,2.0908203-.2451172.5839844-.59375,1.0263672-1.0458984,1.328125Z"/>
      <path class="cls-1" d="M146.8298002,87.17276c-.6289062-.3310547-1.3818359-.4970703-2.2587891-.4970703-.6660156,0-1.2773438.1230469-1.8330078.3671875-.5566406.2451172-1.0361328.5839844-1.4394531,1.0166016-.2026367.2173462-.3827515.4526978-.5410156.7052612v-1.8068237h-2.9082031v12.1259766h3.0019531v-6.796875c0-.6699219.1298828-1.2314453.3886719-1.6835938.2578125-.4521484.5917969-.7880859,1.0009766-1.0078125.4091797-.21875.84375-.328125,1.3017578-.328125.4853516,0,.8945312.0839844,1.2275391.2519531.3330078.1689453.5859375.421875.7578125.7607422.1728516.3388672.2587891.7626953.2587891,1.2724609v7.53125h3.0019531v-7.9599609c0-.9716797-.1689453-1.7900391-.5078125-2.4560547s-.8232422-1.1640625-1.4511719-1.4951172Z"/>
      <path class="cls-1" d="M159.6686674,88.6374207c-.3025513-.4556274-.6588745-.848877-1.0839844-1.1619263-.7226562-.5332031-1.6025391-.7998047-2.640625-.7998047-1.0654297,0-1.9970703.2607422-2.7958984.7822266-.7998047.5205078-1.4150391,1.2597656-1.8476562,2.2177734-.4335938.9570312-.6494141,2.0722656-.6494141,3.3457031,0,1.2763672.2167969,2.3925781.6523438,3.3486328.4345703.9550781,1.0498047,1.6933594,1.8476562,2.2148438.796875.5205078,1.7275391.78125,2.7929688.78125,1.0458984,0,1.9316406-.2685547,2.6582031-.8046875.4701538-.3475342.8564453-.791626,1.1749878-1.3134155l.0037231,1.8358765h2.890625v-16.7314453h-3.0029297v6.2849731ZM158.3678861,96.4520569c-.4521484.3017578-.9921875.4521484-1.6191406.4521484-.6220703,0-1.1611328-.1455078-1.6152344-.4375s-.8027344-.7226562-1.0458984-1.2919922c-.2431641-.5703125-.3642578-1.2646484-.3642578-2.0830078s.1220703-1.5244141.3671875-2.1181641c.2451172-.5927734.5947266-1.046875,1.0488281-1.3603516.4541016-.3125.9912109-.4697266,1.609375-.4697266.6269531,0,1.1679688.1523438,1.6220703.4550781.4541016.3037109.8027344.7470703,1.0458984,1.3310547.2421875.5839844.3642578,1.2851562.3642578,2.1035156,0,.8105469-.1230469,1.5078125-.3671875,2.0908203-.2451172.5839844-.59375,1.0263672-1.0458984,1.328125Z"/>
      <path class="cls-1" d="M180.9294095,90.2860413c-.8105469-.4326172-1.8759766-.7724609-3.1953125-1.0185547l-1.7451172-.3173828c-.7636719-.1533203-1.3623047-.3320312-1.7949219-.5380859-.4326172-.2050781-.7402344-.453125-.9228516-.7431641-.1816406-.2900391-.2724609-.6484375-.2724609-1.0751953,0-.4189453.1113281-.7802734.3349609-1.0839844.2226562-.3027344.5615234-.5361328,1.015625-.6992188.4550781-.1621094,1.0205078-.2431641,1.6982422-.2431641.8613281,0,1.5537109.1064453,2.0771484.3203125.5224609.2128906.9052734.5205078,1.1484375.921875.2421875.4013672.3896484.90625.4404297,1.5126953h3.0898438c-.046875-1.0927734-.3144531-2.0361328-.8046875-2.8310547-.4892578-.7958984-1.234375-1.4130859-2.2353516-1.8544922-1.0009766-.4404297-2.2646484-.6601562-3.7919922-.6601562-1.3789062,0-2.5341797.2060547-3.4667969.6191406-.9316406.4140625-1.625.9785156-2.0791016,1.6953125-.4550781.7167969-.6816406,1.5371094-.6816406,2.4619141,0,.9746094.2109375,1.8027344.6347656,2.4814453.4228516.6796875,1.0058594,1.2207031,1.75,1.6220703s1.6201172.6962891,2.6259766.8837891l1.7919922.3291016c.8544922.1650391,1.5292969.3515625,2.0273438.5615234.4970703.2089844.8564453.4609375,1.078125.7548828.2207031.2939453.3320312.6582031.3320312,1.0927734,0,.5205078-.1337891.9589844-.3994141,1.3154297-.2666016.3564453-.6582031.6240234-1.1757812.8017578-.5166016.1787109-1.1494141.2675781-1.8974609.2675781-.8027344,0-1.4980469-.1015625-2.0849609-.3056641-.5878906-.203125-1.0527344-.5478516-1.3955078-1.0332031-.3427734-.4863281-.5244141-1.1367188-.5439453-1.9511719h-3.2373047c.0283203,1.2851562.3320312,2.3671875.9140625,3.2460938s1.4082031,1.5400391,2.4794922,1.9824219,2.3505859.6640625,3.8388672.6640625c1.4375,0,2.6630859-.2138672,3.6777344-.640625s1.7851562-1.0351562,2.3115234-1.8261719c.5273438-.7919922.7910156-1.7255859.7910156-2.8027344,0-.8925781-.1865234-1.6601562-.5585938-2.2998047-.3720703-.640625-.9628906-1.1777344-1.7744141-1.6103516Z"/>
      <path class="cls-1" d="M194.0368314,87.469635c-.9404297-.5253906-2.0214844-.7880859-3.2431641-.7880859-1.2226562,0-2.3056641.2626953-3.2519531.7880859-.9462891.5244141-1.6826172,1.265625-2.2089844,2.2236328-.5273438.9570312-.7900391,2.0703125-.7900391,3.3398438,0,1.2685547.2626953,2.3808594.7900391,3.3369141.5263672.9550781,1.2626953,1.6933594,2.2089844,2.2148438.9462891.5205078,2.0292969.78125,3.2519531.78125,1.2216797,0,2.3037109-.2607422,3.2460938-.78125.9414062-.5214844,1.6757812-1.2607422,2.203125-2.2177734.5263672-.9580078.7900391-2.0693359.7900391-3.3339844,0-1.2695312-.2646484-2.3828125-.7929688-3.3398438-.5292969-.9580078-1.2636719-1.6992188-2.203125-2.2236328ZM193.5661283,95.157135c-.265625.5810547-.6347656,1.0175781-1.1074219,1.3095703-.4716797.2919922-1.0273438.4375-1.6650391.4375-.6425781,0-1.2021484-.1464844-1.6806641-.4404297-.4775391-.2939453-.8466797-.7304688-1.1074219-1.3095703-.2607422-.5800781-.390625-1.2851562-.390625-2.1152344,0-.8378906.1298828-1.5478516.390625-2.1298828s.6298828-1.0214844,1.1074219-1.3193359c.4785156-.296875,1.0380859-.4462891,1.6806641-.4462891.6376953,0,1.1943359.1484375,1.6679688.4433594.4746094.2958984.84375.7353516,1.1074219,1.3193359.2646484.5839844.3964844,1.2949219.3964844,2.1328125,0,.8300781-.1328125,1.5361328-.3994141,2.1181641Z"/>
      <path class="cls-1" d="M202.8112455,89.5751038c.4404297-.2792969.9609375-.4199219,1.5595703-.4199219.4501953,0,.8613281.0800781,1.234375.2412109.3720703.1601562.6855469.4042969.9423828.7314453s.4335938.7373047.5322266,1.2304688h3.0371094c-.109375-.9316406-.4072266-1.7509766-.8935547-2.4550781-.4853516-.7050781-1.1386719-1.2529297-1.9589844-1.6425781s-1.7753906-.5849609-2.8642578-.5849609c-1.2177734,0-2.2832031.2587891-3.1953125.7763672-.9130859.5166016-1.6171875,1.2539062-2.1123047,2.2119141-.4960938.9570312-.7431641,2.0761719-.7431641,3.3574219,0,1.2802734.2480469,2.3984375.7460938,3.3544922.4970703.9560547,1.2001953,1.6933594,2.109375,2.2119141.9082031.5185547,1.9638672.7783203,3.1660156.7783203,1.0537109,0,1.9931641-.1972656,2.8173828-.5908203s1.4892578-.9521484,1.9941406-1.6738281c.5058594-.7226562.8173828-1.5673828.9345703-2.5351562l-3.0019531.0058594c-.0947266.5205078-.2714844.9541016-.5322266,1.2978516-.2607422.3447266-.5800781.6015625-.9599609.7705078-.3798828.1679688-.7998047.2519531-1.2578125.2519531-.5957031,0-1.1132812-.1396484-1.5537109-.4199219s-.7822266-.7080078-1.0253906-1.2832031c-.2431641-.5761719-.3642578-1.2988281-.3642578-2.1679688,0-.8623047.1210938-1.5820312.3642578-2.1591797.2431641-.578125.5849609-1.0068359,1.0253906-1.2871094Z"/>
      <rect class="cls-1" x="211.9137845" y="86.9579163" width="3.0019531" height="12.1259766"/>
      <path class="cls-1" d="M214.3112455,82.3788147c-.2744141-.1591797-.5703125-.2382812-.8876953-.2382812-.3291016,0-.6289062.0810547-.9013672.2441406-.2724609.1621094-.4892578.3789062-.6523438.6494141-.1621094.2695312-.2441406.5654297-.2441406.8867188,0,.3251953.0820312.6240234.2441406.8955078.1630859.2724609.3818359.4902344.6582031.6523438.2763672.1630859.5742188.2441406.8955078.2441406.3134766,0,.6074219-.0800781.8818359-.2412109.2734375-.1601562.4921875-.3769531.6552734-.6494141.1621094-.2714844.2431641-.5722656.2431641-.9013672,0-.3251953-.0800781-.6240234-.2402344-.8955078-.1611328-.2724609-.3789062-.4882812-.6523438-.6464844Z"/>
      <path class="cls-1" d="M225.904202,88.8085022c-.3228149-.53125-.715332-.9815063-1.1925659-1.3330078-.7226562-.5332031-1.6025391-.7998047-2.640625-.7998047-1.0654297,0-1.9970703.2607422-2.7958984.7822266-.7998047.5205078-1.4150391,1.2597656-1.8476562,2.2177734-.4335938.9570312-.6494141,2.0722656-.6494141,3.3457031,0,1.2763672.2167969,2.3925781.6523438,3.3486328.4345703.9550781,1.0498047,1.6933594,1.8476562,2.2148438.796875.5205078,1.7275391.78125,2.7929688.78125,1.0458984,0,1.9316406-.2685547,2.6582031-.8046875.4701538-.3475342.8564453-.791626,1.1749878-1.3134155l.0037231,1.8358765h2.890625v-12.1259766h-2.890625l-.0037231,1.8505859ZM224.4948392,96.4520569c-.4521484.3017578-.9921875.4521484-1.6191406.4521484-.6220703,0-1.1611328-.1455078-1.6152344-.4375s-.8027344-.7226562-1.0458984-1.2919922c-.2431641-.5703125-.3642578-1.2646484-.3642578-2.0830078s.1220703-1.5244141.3671875-2.1181641c.2451172-.5927734.5947266-1.046875,1.0488281-1.3603516.4541016-.3125.9912109-.4697266,1.609375-.4697266.6269531,0,1.1679688.1523438,1.6220703.4550781.4541016.3037109.8027344.7470703,1.0458984,1.3310547.2421875.5839844.3642578,1.2851562.3642578,2.1035156,0,.8105469-.1230469,1.5078125-.3671875,2.0908203-.2451172.5839844-.59375,1.0263672-1.0458984,1.328125Z"/>
      <path class="cls-1" d="M235.3249174,96.7518616c-.2773438,0-.4960938-.0332031-.6542969-.0996094-.1591797-.0673828-.2753906-.1767578-.3496094-.3291016-.0742188-.1533203-.1123047-.3603516-.1123047-.6230469v-13.3476562h-3.0019531v13.7998047c0,.7207031.1269531,1.3037109.3789062,1.7480469.2529297.4443359.6328125.7666016,1.1396484.9658203.5078125.2001953,1.1591797.2998047,1.9541016.2998047.2226562,0,.4589844-.0068359.7080078-.0205078.2480469-.0136719.4960938-.0341797.7431641-.0615234v-2.3320312h-.8056641Z"/>
      <path class="cls-1" d="M253.4548002,90.2860413c-.8105469-.4326172-1.8759766-.7724609-3.1953125-1.0185547l-1.7451172-.3173828c-.7636719-.1533203-1.3623047-.3320312-1.7949219-.5380859-.4326172-.2050781-.7402344-.453125-.9228516-.7431641-.1816406-.2900391-.2724609-.6484375-.2724609-1.0751953,0-.4189453.1113281-.7802734.3349609-1.0839844.2226562-.3027344.5615234-.5361328,1.015625-.6992188.4550781-.1621094,1.0205078-.2431641,1.6982422-.2431641.8613281,0,1.5537109.1064453,2.0771484.3203125.5224609.2128906.9052734.5205078,1.1484375.921875.2421875.4013672.3896484.90625.4404297,1.5126953h3.0898438c-.046875-1.0927734-.3144531-2.0361328-.8046875-2.8310547-.4892578-.7958984-1.234375-1.4130859-2.2353516-1.8544922-1.0009766-.4404297-2.2646484-.6601562-3.7919922-.6601562-1.3789062,0-2.5341797.2060547-3.4667969.6191406-.9316406.4140625-1.625.9785156-2.0791016,1.6953125-.4550781.7167969-.6816406,1.5371094-.6816406,2.4619141,0,.9746094.2109375,1.8027344.6347656,2.4814453.4228516.6796875,1.0058594,1.2207031,1.75,1.6220703s1.6201172.6962891,2.6259766.8837891l1.7919922.3291016c.8544922.1650391,1.5292969.3515625,2.0273438.5615234.4970703.2089844.8564453.4609375,1.078125.7548828.2207031.2939453.3320312.6582031.3320312,1.0927734,0,.5205078-.1337891.9589844-.3994141,1.3154297-.2666016.3564453-.6582031.6240234-1.1757812.8017578-.5166016.1787109-1.1494141.2675781-1.8974609.2675781-.8027344,0-1.4980469-.1015625-2.0849609-.3056641-.5878906-.203125-1.0527344-.5478516-1.3955078-1.0332031-.3427734-.4863281-.5244141-1.1367188-.5439453-1.9511719h-3.2373047c.0283203,1.2851562.3320312,2.3671875.9140625,3.2460938s1.4082031,1.5400391,2.4794922,1.9824219,2.3505859.6640625,3.8388672.6640625c1.4375,0,2.6630859-.2138672,3.6777344-.640625s1.7851562-1.0351562,2.3115234-1.8261719c.5273438-.7919922.7910156-1.7255859.7910156-2.8027344,0-.8925781-.1865234-1.6601562-.5585938-2.2998047-.3720703-.640625-.9628906-1.1777344-1.7744141-1.6103516Z"/>
      <path class="cls-1" d="M261.5299955,89.5751038c.4404297-.2792969.9609375-.4199219,1.5595703-.4199219.4501953,0,.8613281.0800781,1.234375.2412109.3720703.1601562.6855469.4042969.9423828.7314453s.4335938.7373047.5322266,1.2304688h3.0371094c-.109375-.9316406-.4072266-1.7509766-.8935547-2.4550781-.4853516-.7050781-1.1386719-1.2529297-1.9589844-1.6425781s-1.7753906-.5849609-2.8642578-.5849609c-1.2177734,0-2.2832031.2587891-3.1953125.7763672-.9130859.5166016-1.6171875,1.2539062-2.1123047,2.2119141-.4960938.9570312-.7431641,2.0761719-.7431641,3.3574219,0,1.2802734.2480469,2.3984375.7460938,3.3544922.4970703.9560547,1.2001953,1.6933594,2.109375,2.2119141.9082031.5185547,1.9638672.7783203,3.1660156.7783203,1.0537109,0,1.9931641-.1972656,2.8173828-.5908203s1.4892578-.9521484,1.9941406-1.6738281c.5058594-.7226562.8173828-1.5673828.9345703-2.5351562l-3.0019531.0058594c-.0947266.5205078-.2714844.9541016-.5322266,1.2978516-.2607422.3447266-.5800781.6015625-.9599609.7705078-.3798828.1679688-.7998047.2519531-1.2578125.2519531-.5957031,0-1.1132812-.1396484-1.5537109-.4199219s-.7822266-.7080078-1.0253906-1.2832031c-.2431641-.5761719-.3642578-1.2988281-.3642578-2.1679688,0-.8623047.1210938-1.5820312.3642578-2.1591797.2431641-.578125.5849609-1.0068359,1.0253906-1.2871094Z"/>
      <path class="cls-1" d="M273.0299955,82.3788147c-.2744141-.1591797-.5703125-.2382812-.8876953-.2382812-.3291016,0-.6289062.0810547-.9013672.2441406-.2724609.1621094-.4892578.3789062-.6523438.6494141-.1621094.2695312-.2441406.5654297-.2441406.8867188,0,.3251953.0820312.6240234.2441406.8955078.1630859.2724609.3818359.4902344.6582031.6523438.2763672.1630859.5742188.2441406.8955078.2441406.3134766,0,.6074219-.0800781.8818359-.2412109.2734375-.1601562.4921875-.3769531.6552734-.6494141.1621094-.2714844.2431641-.5722656.2431641-.9013672,0-.3251953-.0800781-.6240234-.2402344-.8955078-.1611328-.2724609-.3789062-.4882812-.6523438-.6464844Z"/>
      <rect class="cls-1" x="270.6325345" y="86.9579163" width="3.0019531" height="12.1259766"/>
      <path class="cls-1" d="M284.7331205,87.4842834c-.9052734-.5390625-1.9677734-.8085938-3.1904297-.8085938-1.2099609,0-2.2714844.2636719-3.1835938.7910156-.9130859.5263672-1.6181641,1.2714844-2.1152344,2.2353516-.4980469.9628906-.7460938,2.0751953-.7460938,3.3369141,0,1.2841797.2519531,2.4033203.7578125,3.3574219.5048828.9541016,1.2167969,1.6865234,2.1357422,2.2001953.9179688.5126953,1.9824219.7695312,3.1923828.7695312.9912109,0,1.8759766-.1660156,2.65625-.4970703.7792969-.3300781,1.4248047-.7998047,1.9384766-1.4091797.5126953-.609375.8710938-1.3232422,1.0751953-2.1416016h-2.8847656c-.1210938.3759766-.3046875.6962891-.5498047.9609375-.2441406.2636719-.5517578.4677734-.921875.6103516-.3701172.1435547-.7939453.2148438-1.2724609.2148438-.6650391,0-1.2373047-.1357422-1.7148438-.4052734-.4785156-.2705078-.8457031-.6796875-1.1015625-1.2285156-.2023926-.4317627-.3012695-.9709473-.3440552-1.5683594h9.0354614c.0126953-.1679688.0205078-.3261719.0244141-.4726562.0029297-.1474609.0058594-.2871094.0058594-.4199219,0-1.2304688-.2402344-2.3242188-.7197266-3.28125-.4804688-.9580078-1.1728516-1.7060547-2.0771484-2.2441406ZM279.8835111,89.3934631c.4599609-.2763672,1.0029297-.4140625,1.6298828-.4140625.6464844,0,1.1953125.1435547,1.6484375.4316406.4521484.2880859.7949219.6875,1.0273438,1.1982422.1717529.3766479.2597046.8104248.3070679,1.2724609h-5.9963989c.0615845-.454895.1539917-.8757935.3114014-1.2255859.2539062-.5654297.6113281-.9863281,1.0722656-1.2626953Z"/>
      <path class="cls-1" d="M298.3776517,87.17276c-.6289062-.3310547-1.3818359-.4970703-2.2587891-.4970703-.6660156,0-1.2773438.1230469-1.8330078.3671875-.5566406.2451172-1.0361328.5839844-1.4394531,1.0166016-.2026367.2173462-.3827515.4526978-.5410156.7052612v-1.8068237h-2.9082031v12.1259766h3.0019531v-6.796875c0-.6699219.1298828-1.2314453.3886719-1.6835938.2578125-.4521484.5917969-.7880859,1.0009766-1.0078125.4091797-.21875.84375-.328125,1.3017578-.328125.4853516,0,.8945312.0839844,1.2275391.2519531.3330078.1689453.5859375.421875.7578125.7607422.1728516.3388672.2587891.7626953.2587891,1.2724609v7.53125h3.0019531v-7.9599609c0-.9716797-.1689453-1.7900391-.5078125-2.4560547s-.8232422-1.1640625-1.4511719-1.4951172Z"/>
      <path class="cls-1" d="M306.6608549,89.5751038c.4404297-.2792969.9609375-.4199219,1.5595703-.4199219.4501953,0,.8613281.0800781,1.234375.2412109.3720703.1601562.6855469.4042969.9423828.7314453s.4335938.7373047.5322266,1.2304688h3.0371094c-.109375-.9316406-.4072266-1.7509766-.8935547-2.4550781-.4853516-.7050781-1.1386719-1.2529297-1.9589844-1.6425781s-1.7753906-.5849609-2.8642578-.5849609c-1.2177734,0-2.2832031.2587891-3.1953125.7763672-.9130859.5166016-1.6171875,1.2539062-2.1123047,2.2119141-.4960938.9570312-.7431641,2.0761719-.7431641,3.3574219,0,1.2802734.2480469,2.3984375.7460938,3.3544922.4970703.9560547,1.2001953,1.6933594,2.109375,2.2119141.9082031.5185547,1.9638672.7783203,3.1660156.7783203,1.0537109,0,1.9931641-.1972656,2.8173828-.5908203s1.4892578-.9521484,1.9941406-1.6738281c.5058594-.7226562.8173828-1.5673828.9345703-2.5351562l-3.0019531.0058594c-.0947266.5205078-.2714844.9541016-.5322266,1.2978516-.2607422.3447266-.5800781.6015625-.9599609.7705078-.3798828.1679688-.7998047.2519531-1.2578125.2519531-.5957031,0-1.1132812-.1396484-1.5537109-.4199219s-.7822266-.7080078-1.0253906-1.2832031c-.2431641-.5761719-.3642578-1.2988281-.3642578-2.1679688,0-.8623047.1210938-1.5820312.3642578-2.1591797.2431641-.578125.5849609-1.0068359,1.0253906-1.2871094Z"/>
      <path class="cls-1" d="M324.452847,87.4842834c-.9052734-.5390625-1.9677734-.8085938-3.1904297-.8085938-1.2099609,0-2.2714844.2636719-3.1835938.7910156-.9130859.5263672-1.6181641,1.2714844-2.1152344,2.2353516-.4980469.9628906-.7460938,2.0751953-.7460938,3.3369141,0,1.2841797.2519531,2.4033203.7578125,3.3574219.5048828.9541016,1.2167969,1.6865234,2.1357422,2.2001953.9179688.5126953,1.9824219.7695312,3.1923828.7695312.9912109,0,1.8759766-.1660156,2.65625-.4970703.7792969-.3300781,1.4248047-.7998047,1.9384766-1.4091797.5126953-.609375.8710938-1.3232422,1.0751953-2.1416016h-2.8847656c-.1210938.3759766-.3046875.6962891-.5498047.9609375-.2441406.2636719-.5517578.4677734-.921875.6103516-.3701172.1435547-.7939453.2148438-1.2724609.2148438-.6650391,0-1.2373047-.1357422-1.7148438-.4052734-.4785156-.2705078-.8457031-.6796875-1.1015625-1.2285156-.2023926-.4317627-.3012695-.9709473-.3440552-1.5683594h9.0354614c.0126953-.1679688.0205078-.3261719.0244141-.4726562.0029297-.1474609.0058594-.2871094.0058594-.4199219,0-1.2304688-.2402344-2.3242188-.7197266-3.28125-.4804688-.9580078-1.1728516-1.7060547-2.0771484-2.2441406ZM319.6032377,89.3934631c.4599609-.2763672,1.0029297-.4140625,1.6298828-.4140625.6464844,0,1.1953125.1435547,1.6484375.4316406.4521484.2880859.7949219.6875,1.0273438,1.1982422.1717529.3766479.2597046.8104248.3070679,1.2724609h-5.9963989c.0615845-.454895.1539917-.8757935.3114014-1.2255859.2539062-.5654297.6113281-.9863281,1.0722656-1.2626953Z"/>
      <path class="cls-1" d="M338.702847,93.7645569c-.3115234-.4882812-.7802734-.8857422-1.4042969-1.1923828-.625-.3076172-1.4228516-.5380859-2.3945312-.6904297l-1.4277344-.2294922c-.4814453-.078125-.8710938-.1757812-1.1689453-.2939453-.2978516-.1171875-.5205078-.2714844-.6699219-.4638672-.1484375-.1923828-.2226562-.4326172-.2226562-.7226562s.0791016-.5351562.2373047-.7373047c.1591797-.2021484.3945312-.3554688.7080078-.4609375.3134766-.1064453.6972656-.1591797,1.1523438-.1591797.5517578,0,1.0068359.0585938,1.3652344.1767578.3583984.1171875.6376953.3173828.8378906.5986328.1992188.2822266.3105469.6679688.3339844,1.1582031h2.8203125c-.0273438-.8466797-.2324219-1.5712891-.6142578-2.1738281-.3818359-.6035156-.9648438-1.0703125-1.75-1.4013672-.7861328-.3310547-1.78125-.4970703-2.9873047-.4970703-1.0576172,0-1.9638672.1464844-2.7177734.4384766-.7539062.2910156-1.3271484.7119141-1.7216797,1.2597656-.3935547.5488281-.5898438,1.2080078-.5898438,1.9794922,0,.6972656.1552734,1.2958984.4667969,1.7949219.3115234.5.7617188.9042969,1.3515625,1.2138672.5888672.3095703,1.3085938.5322266,2.1591797.6689453l1.5566406.2470703c.5556641.0976562.9912109.2119141,1.3037109.3408203.3134766.1289062.5371094.2880859.6699219.4755859.1337891.1884766.2001953.4257812.2001953.7109375,0,.3134766-.0830078.5761719-.25.7871094-.1660156.2119141-.4267578.3730469-.78125.4853516-.3544922.1113281-.8017578.1669922-1.3427734.1669922-.5908203,0-1.0722656-.0673828-1.4423828-.2021484-.3701172-.1357422-.6533203-.3496094-.8515625-.6435547-.1972656-.2939453-.3242188-.6894531-.3789062-1.1865234l-2.9375.0058594c.0664062.9394531.3203125,1.7197266.7607422,2.3408203s1.0605469,1.0839844,1.859375,1.3896484c.7988281.3046875,1.7744141.4580078,2.9257812.4580078,1.1279297,0,2.0966797-.1513672,2.9052734-.4521484.8085938-.3017578,1.4287109-.7392578,1.859375-1.3134766.4306641-.5732422.6464844-1.2714844.6464844-2.09375,0-.7011719-.15625-1.2958984-.4667969-1.7832031Z"/>
    </g>
  </g>
  <g id="Fig._Mark" data-name="Fig. Mark">
    <g>
      <rect class="cls-1" x="35.4315" y="92.1158948" width="70.8630066" height="7.0860062"/>
      <path class="cls-1" d="M44.4405332,63.7794919c0-14.594986,11.8309937-26.4259949,26.4279785-26.4259949,14.5960083,0,26.4290161,11.8310089,26.4290161,26.4259949,0,9.6410065-7.8170166,17.4580078-17.4590149,17.4580078-1.5039978,0-2.723999-1.2200012-2.723999-2.7230072,0-1.5039978,1.2200012-2.7229919,2.723999-2.7229919,6.6350098,0,12.0130005-5.3789978,12.0130005-12.0120087,0-11.5889893-9.394989-20.9809875-20.9830017-20.9809875-11.5889893,0-20.9809875,9.3919983-20.9809875,20.9809875,0,8.4790039,7.0849915,15.6830139,15.1309814,15.6830139.5310059,0,.9609985-.4190063.9609985-.9480133,0-.5309906-.4289856-.9609985-.9589844-.9609985-7.0169983,0-13.2130127-6.3559875-13.2130127-13.7740021,0-10.5279999,8.5339966-19.0589905,19.0610046-19.0589905s19.0610046,8.5309906,19.0610046,19.0589905c0,5.5730133-4.5180054,10.0900116-10.0910034,10.0900116-2.565979,0-4.6459961,2.0780029-4.6459961,4.644989,0,2.5640106,2.0800171,4.6440125,4.6459961,4.6440125,10.70401,0,19.381012-8.6750031,19.381012-19.3790131,0-15.6559906-12.6940002-28.3479919-28.3510132-28.3479919-15.6579895,0-28.348999,12.6920013-28.348999,28.3479919,0,12.5470123,10.2430115,23.0620041,22.4989929,23.0620041,4.6809998,0,8.4130249-3.7259903,8.4130249-8.3270035v-6.4079895h6.4069824c4.6000061,0,8.32901-3.727005,8.32901-8.3270111,0-9.5529938-7.7449951-17.29599-17.2990112-17.29599-9.5549927,0-17.2999878,7.7429962-17.2999878,17.29599,0,6.4730072,5.5079956,12.0120087,11.5339966,12.0120087,1.5029907,0,2.7219849,1.2189941,2.7219849,2.7229919,0,1.503006-1.1829834,2.7230072-2.8059998,2.7230072-9.09198,0-16.894989-8.0059967-16.894989-17.4580078,0-12.5609894,10.1830139-22.743988,22.7449951-22.743988,12.5620117,0,22.7440186,10.1829987,22.7440186,22.743988,0,7.6080017-6.1670227,13.7740021-13.7740173,13.7740021-.5310059,0-.9609985.4300079-.9609985.9609985,0,.529007.4299927.9610138.9609985.9610138,8.6690063,0,15.697998-7.0279999,15.697998-15.6960144,0-13.6239929-11.0449829-24.6660004-24.6679993-24.6660004-13.6239929,0-24.6659851,11.0420074-24.6659851,24.6660004,0,10.5140076,8.6789856,19.3790131,18.815979,19.3790131,2.70401,0,4.7270203-2.0800018,4.7270203-4.6440125,0-2.5669861-2.0780029-4.6559906-4.6430054-4.6559906-5.1499939,0-9.6109924-4.6690063-9.6109924-10.07901,0-8.4919891,6.8840027-15.375,15.3769836-15.375,8.4920044,0,15.3760071,6.8830109,15.3760071,15.375,0,3.5380096-2.8680115,6.404007-6.4060059,6.404007h-6.4069824v-6.404007c0-1.4149933-1.1480103-2.5629883-2.5630188-2.5629883-1.4159851,0-2.5610046,1.147995-2.5610046,2.5629883,0,1.5040131-1.2209778,2.7230072-2.7249756,2.7230072s-2.7220154-1.2189941-2.7220154-2.7230072c0-4.4229889,3.5840149-8.0079956,8.0079956-8.0079956,4.4230042,0,8.0090027,3.5850067,8.0090027,8.0079956,0,.5310059.4299927.9600067.9609985.9600067.5299988,0,.9609985-.4290009.9609985-.9600067,0-5.4839935-4.4459839-9.9299927-9.9309998-9.9299927-5.4849854,0-9.9309998,4.4459991-9.9309998,9.9299927,0,2.5650024,2.0800171,4.6450043,4.6450195,4.6450043s4.6469727-2.0800018,4.6469727-4.6450043c0-.3539886.2850037-.6409912.6390076-.6409912s.6410217.2870026.6410217.6409912v6.404007h-5.927002c-3.5500183,0-6.4049988-2.8659973-6.4049988-6.404007,0-6.4579926,5.2329712-11.6919861,11.690979-11.6919861,6.4570007,0,11.6929932,5.2339935,11.6929932,11.6919861,0,1.5040131-1.2189941,2.7230072-2.7229919,2.7230072s-2.723999-1.2189941-2.723999-2.7230072c0-3.4499969-2.7969971-6.2479858-6.2460022-6.2479858-3.4499817,0-6.2449951,2.7979889-6.2449951,6.2479858,0,.5310059.428009.9600067.9590149.9600067.5299988,0,.9629822-.4290009.9629822-.9600067,0-2.3879852,1.9339905-4.3249969,4.322998-4.3249969,2.3880005,0,4.3240051,1.9370117,4.3240051,4.3249969,0,2.5650024,2.0800171,4.6450043,4.6459961,4.6450043,2.5650024,0,4.6440125-2.0800018,4.6440125-4.6450043,0-7.5189972-6.0950012-13.6139984-13.6140137-13.6139984-7.5189819,0-13.6149902,6.0950012-13.6149902,13.6139984,0,4.6000061,3.7179871,8.3270111,8.3309937,8.3270111h5.9250183v6.4079895c0,3.5390015-2.8410034,6.4060059-6.4910278,6.4060059-11.0699768,0-20.5779724-9.6539917-20.5779724-21.1410065"/>
    </g>
  </g>
</svg>