<svg width="72" height="65" viewBox="0 0 72 65" fill="none" xmlns="http://www.w3.org/2000/svg">
<path d="M71.2945 57.1159H0.431503V64.2019H71.2945V57.1159Z" fill="#1E3241"/>
<path d="M9.44054 28.7795C9.44054 14.1845 21.2715 2.3535 35.8685 2.3535C50.4645 2.3535 62.2975 14.1845 62.2975 28.7795C62.2975 38.4205 54.4805 46.2375 44.8385 46.2375C43.3345 46.2375 42.1145 45.0175 42.1145 43.5145C42.1145 42.0105 43.3345 40.7915 44.8385 40.7915C51.4735 40.7915 56.8515 35.4125 56.8515 28.7795C56.8515 17.1905 47.4565 7.79851 35.8685 7.79851C24.2795 7.79851 14.8875 17.1905 14.8875 28.7795C14.8875 37.2585 21.9725 44.4625 30.0185 44.4625C30.5495 44.4625 30.9795 44.0435 30.9795 43.5145C30.9795 42.9835 30.5505 42.5535 30.0205 42.5535C23.0035 42.5535 16.8075 36.1975 16.8075 28.7795C16.8075 18.2515 25.3415 9.7205 35.8685 9.7205C46.3955 9.7205 54.9295 18.2515 54.9295 28.7795C54.9295 34.3525 50.4115 38.8695 44.8385 38.8695C42.2725 38.8695 40.1925 40.9475 40.1925 43.5145C40.1925 46.0785 42.2725 48.1585 44.8385 48.1585C55.5425 48.1585 64.2195 39.4835 64.2195 28.7795C64.2195 13.1235 51.5255 0.431503 35.8685 0.431503C20.2105 0.431503 7.51952 13.1235 7.51952 28.7795C7.51952 41.3265 17.7625 51.8415 30.0185 51.8415C34.6995 51.8415 38.4315 48.1155 38.4315 43.5145V37.1065H44.8385C49.4385 37.1065 53.1675 33.3795 53.1675 28.7795C53.1675 19.2265 45.4225 11.4835 35.8685 11.4835C26.3135 11.4835 18.5685 19.2265 18.5685 28.7795C18.5685 35.2525 24.0765 40.7915 30.1025 40.7915C31.6055 40.7915 32.8245 42.0105 32.8245 43.5145C32.8245 45.0175 31.6415 46.2375 30.0185 46.2375C20.9265 46.2375 13.1235 38.2315 13.1235 28.7795C13.1235 16.2185 23.3065 6.03551 35.8685 6.03551C48.4305 6.03551 58.6125 16.2185 58.6125 28.7795C58.6125 36.3875 52.4455 42.5535 44.8385 42.5535C44.3075 42.5535 43.8775 42.9835 43.8775 43.5145C43.8775 44.0435 44.3075 44.4755 44.8385 44.4755C53.5075 44.4755 60.5365 37.4475 60.5365 28.7795C60.5365 15.1555 49.4915 4.11349 35.8685 4.11349C22.2445 4.11349 11.2025 15.1555 11.2025 28.7795C11.2025 39.2935 19.8815 48.1585 30.0185 48.1585C32.7225 48.1585 34.7455 46.0785 34.7455 43.5145C34.7455 40.9475 32.6675 38.8585 30.1025 38.8585C24.9525 38.8585 20.4915 34.1895 20.4915 28.7795C20.4915 20.2875 27.3755 13.4045 35.8685 13.4045C44.3605 13.4045 51.2445 20.2875 51.2445 28.7795C51.2445 32.3175 48.3765 35.1835 44.8385 35.1835H38.4315V28.7795C38.4315 27.3645 37.2835 26.2165 35.8685 26.2165C34.4525 26.2165 33.3075 27.3645 33.3075 28.7795C33.3075 30.2835 32.0865 31.5025 30.5825 31.5025C29.0785 31.5025 27.8605 30.2835 27.8605 28.7795C27.8605 24.3565 31.4445 20.7715 35.8685 20.7715C40.2915 20.7715 43.8775 24.3565 43.8775 28.7795C43.8775 29.3105 44.3075 29.7395 44.8385 29.7395C45.3685 29.7395 45.7995 29.3105 45.7995 28.7795C45.7995 23.2955 41.3535 18.8495 35.8685 18.8495C30.3835 18.8495 25.9375 23.2955 25.9375 28.7795C25.9375 31.3445 28.0175 33.4245 30.5825 33.4245C33.1475 33.4245 35.2295 31.3445 35.2295 28.7795C35.2295 28.4255 35.5145 28.1385 35.8685 28.1385C36.2225 28.1385 36.5095 28.4255 36.5095 28.7795V35.1835H30.5825C27.0325 35.1835 24.1775 32.3175 24.1775 28.7795C24.1775 22.3215 29.4105 17.0875 35.8685 17.0875C42.3255 17.0875 47.5615 22.3215 47.5615 28.7795C47.5615 30.2835 46.3425 31.5025 44.8385 31.5025C43.3345 31.5025 42.1145 30.2835 42.1145 28.7795C42.1145 25.3295 39.3175 22.5315 35.8685 22.5315C32.4185 22.5315 29.6235 25.3295 29.6235 28.7795C29.6235 29.3105 30.0515 29.7395 30.5825 29.7395C31.1125 29.7395 31.5455 29.3105 31.5455 28.7795C31.5455 26.3915 33.4795 24.4545 35.8685 24.4545C38.2565 24.4545 40.1925 26.3915 40.1925 28.7795C40.1925 31.3445 42.2725 33.4245 44.8385 33.4245C47.4035 33.4245 49.4825 31.3445 49.4825 28.7795C49.4825 21.2605 43.3875 15.1655 35.8685 15.1655C28.3495 15.1655 22.2535 21.2605 22.2535 28.7795C22.2535 33.3795 25.9715 37.1065 30.5845 37.1065H36.5095V43.5145C36.5095 47.0535 33.6685 49.9205 30.0185 49.9205C18.9485 49.9205 9.44054 40.2665 9.44054 28.7795Z" fill="#1E3241"/>
</svg>
